<svg version="1.1" xmlns="http://www.w3.org/2000/svg" xmlns:xlink="http://www.w3.org/1999/xlink" viewBox="0 0 172 172"><defs><linearGradient x1="39.41667" y1="20.50742" x2="39.41667" y2="55.49867" gradientUnits="userSpaceOnUse" id="color-1"><stop offset="0" stop-color="#00e472"></stop><stop offset="1" stop-color="#00e472"></stop></linearGradient><linearGradient x1="86" y1="20.50742" x2="86" y2="55.49867" gradientUnits="userSpaceOnUse" id="color-2"><stop offset="0" stop-color="#00e472"></stop><stop offset="1" stop-color="#00e472"></stop></linearGradient><linearGradient x1="132.58333" y1="20.50742" x2="132.58333" y2="55.49867" gradientUnits="userSpaceOnUse" id="color-3"><stop offset="0" stop-color="#00e472"></stop><stop offset="1" stop-color="#00e472"></stop></linearGradient><linearGradient x1="39.41667" y1="67.16958" x2="39.41667" y2="100.72033" gradientUnits="userSpaceOnUse" id="color-4"><stop offset="0" stop-color="#00e472"></stop><stop offset="1" stop-color="#00e472"></stop></linearGradient><linearGradient x1="86" y1="67.16958" x2="86" y2="100.72033" gradientUnits="userSpaceOnUse" id="color-5"><stop offset="0" stop-color="#00e472"></stop><stop offset="1" stop-color="#00e472"></stop></linearGradient><linearGradient x1="132.58333" y1="67.16958" x2="132.58333" y2="100.72033" gradientUnits="userSpaceOnUse" id="color-6"><stop offset="0" stop-color="#00e472"></stop><stop offset="1" stop-color="#00e472"></stop></linearGradient><linearGradient x1="39.41667" y1="115.96383" x2="39.41667" y2="148.29625" gradientUnits="userSpaceOnUse" id="color-7"><stop offset="0" stop-color="#00e472"></stop><stop offset="1" stop-color="#00e472"></stop></linearGradient><linearGradient x1="86" y1="115.96383" x2="86" y2="148.29625" gradientUnits="userSpaceOnUse" id="color-8"><stop offset="0" stop-color="#00e472"></stop><stop offset="1" stop-color="#00e472"></stop></linearGradient><linearGradient x1="132.58333" y1="115.96383" x2="132.58333" y2="148.29625" gradientUnits="userSpaceOnUse" id="color-9"><stop offset="0" stop-color="#00e472"></stop><stop offset="1" stop-color="#00e472"></stop></linearGradient></defs><g fill="none" fill-rule="nonzero" stroke="none" stroke-width="1" stroke-linecap="butt" stroke-linejoin="miter" stroke-miterlimit="10" stroke-dasharray="" stroke-dashoffset="0" font-family="none" font-weight="none" font-size="none" text-anchor="none" style="mix-blend-mode: normal"><path d="M0,172v-172h172v172z" fill="none"></path><g><path d="M52.85417,57.33333h-26.875c-2.46175,0 -4.47917,-2.01383 -4.47917,-4.47917v-26.875c0,-2.46175 2.01742,-4.47917 4.47917,-4.47917h26.875c2.46533,0 4.47917,2.01742 4.47917,4.47917v26.875c0,2.46533 -2.01383,4.47917 -4.47917,4.47917z" fill="url(#color-1)"></path><path d="M99.4375,57.33333h-26.875c-2.46175,0 -4.47917,-2.01383 -4.47917,-4.47917v-26.875c0,-2.46175 2.01742,-4.47917 4.47917,-4.47917h26.875c2.46533,0 4.47917,2.01742 4.47917,4.47917v26.875c0,2.46533 -2.01383,4.47917 -4.47917,4.47917z" fill="url(#color-2)"></path><path d="M146.02083,57.33333h-26.875c-2.46175,0 -4.47917,-2.01383 -4.47917,-4.47917v-26.875c0,-2.46175 2.01742,-4.47917 4.47917,-4.47917h26.875c2.46533,0 4.47917,2.01742 4.47917,4.47917v26.875c0,2.46533 -2.01383,4.47917 -4.47917,4.47917z" fill="url(#color-3)"></path><path d="M52.85417,103.91667h-26.875c-2.46175,0 -4.47917,-2.01383 -4.47917,-4.47917v-26.875c0,-2.46175 2.01742,-4.47917 4.47917,-4.47917h26.875c2.46533,0 4.47917,2.01742 4.47917,4.47917v26.875c0,2.46533 -2.01383,4.47917 -4.47917,4.47917z" fill="url(#color-4)"></path><path d="M99.4375,103.91667h-26.875c-2.46175,0 -4.47917,-2.01383 -4.47917,-4.47917v-26.875c0,-2.46533 2.01742,-4.47917 4.47917,-4.47917h26.875c2.46533,0 4.47917,2.01742 4.47917,4.47917v26.875c0,2.46533 -2.01383,4.47917 -4.47917,4.47917z" fill="url(#color-5)"></path><path d="M146.02083,103.91667h-26.875c-2.46175,0 -4.47917,-2.01383 -4.47917,-4.47917v-26.875c0,-2.46533 2.01742,-4.47917 4.47917,-4.47917h26.875c2.46533,0 4.47917,2.01742 4.47917,4.47917v26.875c0,2.46533 -2.01383,4.47917 -4.47917,4.47917z" fill="url(#color-6)"></path><path d="M52.85417,150.5h-26.875c-2.46175,0 -4.47917,-2.01383 -4.47917,-4.47917v-26.875c0,-2.46175 2.01742,-4.47917 4.47917,-4.47917h26.875c2.46533,0 4.47917,2.01742 4.47917,4.47917v26.875c0,2.46533 -2.01383,4.47917 -4.47917,4.47917z" fill="url(#color-7)"></path><path d="M99.4375,150.5h-26.875c-2.46175,0 -4.47917,-2.01383 -4.47917,-4.47917v-26.875c0,-2.46533 2.01742,-4.47917 4.47917,-4.47917h26.875c2.46533,0 4.47917,2.01742 4.47917,4.47917v26.875c0,2.46533 -2.01383,4.47917 -4.47917,4.47917z" fill="url(#color-8)"></path><path d="M146.02083,150.5h-26.875c-2.46175,0 -4.47917,-2.01383 -4.47917,-4.47917v-26.875c0,-2.46533 2.01742,-4.47917 4.47917,-4.47917h26.875c2.46533,0 4.47917,2.01742 4.47917,4.47917v26.875c0,2.46533 -2.01383,4.47917 -4.47917,4.47917z" fill="url(#color-9)"></path></g></g></svg>